<mxfile host="Electron" agent="Mozilla/5.0 (Macintosh; Intel Mac OS X 10_15_7) AppleWebKit/537.36 (KHTML, like Gecko) draw.io/27.0.5 Chrome/134.0.6998.205 Electron/35.3.0 Safari/537.36" version="27.0.5">
  <diagram name="第 1 页" id="SQt2P8pR6mWQUdECxDOQ">
    <mxGraphModel dx="858" dy="1569" grid="1" gridSize="10" guides="1" tooltips="1" connect="1" arrows="1" fold="1" page="1" pageScale="1" pageWidth="1169" pageHeight="827" math="0" shadow="0">
      <root>
        <mxCell id="0" />
        <mxCell id="1" parent="0" />
        <mxCell id="Zh-JILyBSgv-LCjlcfyP-1" value="" style="rounded=0;whiteSpace=wrap;html=1;fontFamily=Courier New;" parent="1" vertex="1">
          <mxGeometry x="320" y="120" width="40" height="400" as="geometry" />
        </mxCell>
        <mxCell id="Zh-JILyBSgv-LCjlcfyP-12" value="TagV" style="rounded=0;whiteSpace=wrap;html=1;arcSize=8;strokeWidth=2;fontFamily=Courier New;" parent="1" vertex="1">
          <mxGeometry x="329" y="270" width="200" height="80" as="geometry" />
        </mxCell>
        <mxCell id="Zh-JILyBSgv-LCjlcfyP-11" value="TagV" style="rounded=0;whiteSpace=wrap;html=1;arcSize=8;strokeWidth=2;fontFamily=Courier New;" parent="1" vertex="1">
          <mxGeometry x="329" y="150" width="200" height="80" as="geometry" />
        </mxCell>
        <mxCell id="Zh-JILyBSgv-LCjlcfyP-3" value="" style="triangle;whiteSpace=wrap;html=1;rotation=-90;fontFamily=Courier New;" parent="1" vertex="1">
          <mxGeometry x="325" y="485" width="30" height="40" as="geometry" />
        </mxCell>
        <mxCell id="Zh-JILyBSgv-LCjlcfyP-16" style="edgeStyle=orthogonalEdgeStyle;rounded=0;orthogonalLoop=1;jettySize=auto;html=1;exitX=1;exitY=0.5;exitDx=0;exitDy=0;entryX=0;entryY=0.5;entryDx=0;entryDy=0;strokeWidth=2;fontFamily=Courier New;" parent="1" source="Zh-JILyBSgv-LCjlcfyP-4" target="Zh-JILyBSgv-LCjlcfyP-13" edge="1">
          <mxGeometry relative="1" as="geometry" />
        </mxCell>
        <mxCell id="Zh-JILyBSgv-LCjlcfyP-4" value="&lt;font style=&quot;font-size: 20px;&quot;&gt;&lt;b&gt;TagV&lt;/b&gt;&lt;/font&gt;" style="rounded=0;whiteSpace=wrap;html=1;arcSize=8;strokeWidth=2;fontFamily=Courier New;" parent="1" vertex="1">
          <mxGeometry x="320" y="160" width="200" height="80" as="geometry" />
        </mxCell>
        <mxCell id="Zh-JILyBSgv-LCjlcfyP-26" style="edgeStyle=orthogonalEdgeStyle;rounded=0;orthogonalLoop=1;jettySize=auto;html=1;exitX=1;exitY=0.5;exitDx=0;exitDy=0;entryX=0;entryY=0.5;entryDx=0;entryDy=0;strokeWidth=2;" parent="1" source="Zh-JILyBSgv-LCjlcfyP-5" target="Zh-JILyBSgv-LCjlcfyP-6" edge="1">
          <mxGeometry relative="1" as="geometry" />
        </mxCell>
        <mxCell id="Zh-JILyBSgv-LCjlcfyP-5" value="&lt;font style=&quot;font-size: 20px;&quot;&gt;&lt;b&gt;Data&lt;/b&gt;&lt;/font&gt;" style="rounded=0;whiteSpace=wrap;html=1;arcSize=9;strokeWidth=2;fontFamily=Courier New;" parent="1" vertex="1">
          <mxGeometry x="320" y="280" width="200" height="80" as="geometry" />
        </mxCell>
        <mxCell id="Zh-JILyBSgv-LCjlcfyP-6" value="" style="rounded=0;whiteSpace=wrap;html=1;fontFamily=Courier New;" parent="1" vertex="1">
          <mxGeometry x="680" y="120" width="40" height="400" as="geometry" />
        </mxCell>
        <mxCell id="Zh-JILyBSgv-LCjlcfyP-7" value="" style="triangle;whiteSpace=wrap;html=1;rotation=-90;fontFamily=Courier New;" parent="1" vertex="1">
          <mxGeometry x="685" y="485" width="30" height="40" as="geometry" />
        </mxCell>
        <mxCell id="Zh-JILyBSgv-LCjlcfyP-15" style="edgeStyle=orthogonalEdgeStyle;rounded=0;orthogonalLoop=1;jettySize=auto;html=1;exitX=1;exitY=0.5;exitDx=0;exitDy=0;entryX=0;entryY=0;entryDx=0;entryDy=0;strokeWidth=2;fontFamily=Courier New;" parent="1" source="Zh-JILyBSgv-LCjlcfyP-8" target="Zh-JILyBSgv-LCjlcfyP-13" edge="1">
          <mxGeometry relative="1" as="geometry">
            <Array as="points">
              <mxPoint x="570" />
              <mxPoint x="570" y="186" />
            </Array>
          </mxGeometry>
        </mxCell>
        <mxCell id="Zh-JILyBSgv-LCjlcfyP-8" value="&lt;font style=&quot;font-size: 20px;&quot;&gt;&lt;b&gt;MMU&lt;/b&gt;&lt;/font&gt;" style="whiteSpace=wrap;html=1;aspect=fixed;strokeWidth=2;fontFamily=Courier New;" parent="1" vertex="1">
          <mxGeometry x="400" y="-40" width="80" height="80" as="geometry" />
        </mxCell>
        <mxCell id="Zh-JILyBSgv-LCjlcfyP-19" style="edgeStyle=orthogonalEdgeStyle;rounded=0;orthogonalLoop=1;jettySize=auto;html=1;exitX=1;exitY=0.5;exitDx=0;exitDy=0;entryX=0;entryY=0.5;entryDx=0;entryDy=0;strokeWidth=2;fontFamily=Courier New;" parent="1" source="Zh-JILyBSgv-LCjlcfyP-9" target="Zh-JILyBSgv-LCjlcfyP-8" edge="1">
          <mxGeometry relative="1" as="geometry" />
        </mxCell>
        <mxCell id="Zh-JILyBSgv-LCjlcfyP-9" value="" style="rounded=0;whiteSpace=wrap;html=1;fontFamily=Courier New;" parent="1" vertex="1">
          <mxGeometry x="320" y="-80" width="40" height="160" as="geometry" />
        </mxCell>
        <mxCell id="Zh-JILyBSgv-LCjlcfyP-10" value="" style="triangle;whiteSpace=wrap;html=1;rotation=-90;fontFamily=Courier New;" parent="1" vertex="1">
          <mxGeometry x="325" y="45" width="30" height="40" as="geometry" />
        </mxCell>
        <mxCell id="Zh-JILyBSgv-LCjlcfyP-13" value="&lt;b&gt;=&lt;/b&gt;" style="ellipse;whiteSpace=wrap;html=1;aspect=fixed;strokeWidth=2;fontFamily=Courier New;" parent="1" vertex="1">
          <mxGeometry x="600" y="180" width="40" height="40" as="geometry" />
        </mxCell>
        <mxCell id="Zh-JILyBSgv-LCjlcfyP-18" value="" style="endArrow=classic;html=1;rounded=0;exitX=1;exitY=0.5;exitDx=0;exitDy=0;entryX=0.003;entryY=0.2;entryDx=0;entryDy=0;entryPerimeter=0;strokeWidth=2;fontFamily=Courier New;" parent="1" source="Zh-JILyBSgv-LCjlcfyP-13" target="Zh-JILyBSgv-LCjlcfyP-6" edge="1">
          <mxGeometry width="50" height="50" relative="1" as="geometry">
            <mxPoint x="640" y="190" as="sourcePoint" />
            <mxPoint x="690" y="140" as="targetPoint" />
          </mxGeometry>
        </mxCell>
        <mxCell id="Zh-JILyBSgv-LCjlcfyP-20" value="" style="endArrow=classic;html=1;rounded=0;entryX=0;entryY=0.5;entryDx=0;entryDy=0;fontFamily=Courier New;" parent="1" target="Zh-JILyBSgv-LCjlcfyP-9" edge="1">
          <mxGeometry width="50" height="50" relative="1" as="geometry">
            <mxPoint x="160" as="sourcePoint" />
            <mxPoint x="210" y="-50" as="targetPoint" />
          </mxGeometry>
        </mxCell>
        <mxCell id="Zh-JILyBSgv-LCjlcfyP-21" value="" style="endArrow=classic;html=1;rounded=0;entryX=0;entryY=0.5;entryDx=0;entryDy=0;edgeStyle=orthogonalEdgeStyle;fontFamily=Courier New;" parent="1" target="Zh-JILyBSgv-LCjlcfyP-4" edge="1">
          <mxGeometry width="50" height="50" relative="1" as="geometry">
            <mxPoint x="240" as="sourcePoint" />
            <mxPoint x="290" y="50" as="targetPoint" />
            <Array as="points">
              <mxPoint x="240" y="200" />
            </Array>
          </mxGeometry>
        </mxCell>
        <mxCell id="Zh-JILyBSgv-LCjlcfyP-22" value="" style="endArrow=classic;html=1;rounded=0;entryX=0;entryY=0.5;entryDx=0;entryDy=0;edgeStyle=orthogonalEdgeStyle;fontFamily=Courier New;" parent="1" edge="1">
          <mxGeometry width="50" height="50" relative="1" as="geometry">
            <mxPoint x="240" y="200" as="sourcePoint" />
            <mxPoint x="320" y="320" as="targetPoint" />
            <Array as="points">
              <mxPoint x="240" y="320" />
            </Array>
          </mxGeometry>
        </mxCell>
        <mxCell id="Zh-JILyBSgv-LCjlcfyP-23" value="&lt;font&gt;&lt;b&gt;addr&lt;/b&gt;&lt;/font&gt;" style="text;html=1;align=center;verticalAlign=middle;resizable=0;points=[];autosize=1;strokeColor=none;fillColor=none;fontFamily=Courier New;" parent="1" vertex="1">
          <mxGeometry x="155" y="-22" width="50" height="30" as="geometry" />
        </mxCell>
        <mxCell id="Zh-JILyBSgv-LCjlcfyP-24" value="&lt;font&gt;&lt;b&gt;index&lt;/b&gt;&lt;/font&gt;" style="text;html=1;align=center;verticalAlign=middle;resizable=0;points=[];autosize=1;strokeColor=none;fillColor=none;fontFamily=Courier New;" parent="1" vertex="1">
          <mxGeometry x="245" y="175" width="60" height="30" as="geometry" />
        </mxCell>
        <mxCell id="Zh-JILyBSgv-LCjlcfyP-25" value="&lt;font&gt;&lt;b&gt;index&lt;/b&gt;&lt;/font&gt;" style="text;html=1;align=center;verticalAlign=middle;resizable=0;points=[];autosize=1;strokeColor=none;fillColor=none;fontFamily=Courier New;" parent="1" vertex="1">
          <mxGeometry x="245" y="295" width="60" height="30" as="geometry" />
        </mxCell>
        <mxCell id="Zh-JILyBSgv-LCjlcfyP-27" value="&lt;font&gt;&lt;b&gt;rdata&lt;/b&gt;&lt;/font&gt;" style="text;html=1;align=center;verticalAlign=middle;resizable=0;points=[];autosize=1;strokeColor=none;fillColor=none;fontFamily=Courier New;" parent="1" vertex="1">
          <mxGeometry x="570" y="295" width="60" height="30" as="geometry" />
        </mxCell>
        <mxCell id="Zh-JILyBSgv-LCjlcfyP-28" value="&lt;font&gt;&lt;b&gt;paddr&lt;/b&gt;&lt;/font&gt;" style="text;html=1;align=center;verticalAlign=middle;resizable=0;points=[];autosize=1;strokeColor=none;fillColor=none;fontFamily=Courier New;" parent="1" vertex="1">
          <mxGeometry x="500" y="-22" width="60" height="30" as="geometry" />
        </mxCell>
        <mxCell id="Zh-JILyBSgv-LCjlcfyP-29" value="&lt;font&gt;&lt;b&gt;ptag&lt;/b&gt;&lt;/font&gt;" style="text;html=1;align=center;verticalAlign=middle;resizable=0;points=[];autosize=1;strokeColor=none;fillColor=none;fontFamily=Courier New;" parent="1" vertex="1">
          <mxGeometry x="565" y="90" width="50" height="30" as="geometry" />
        </mxCell>
        <mxCell id="Zh-JILyBSgv-LCjlcfyP-30" value="&lt;font&gt;&lt;b&gt;r&lt;/b&gt;&lt;/font&gt;&lt;b style=&quot;background-color: transparent; color: light-dark(rgb(0, 0, 0), rgb(255, 255, 255));&quot;&gt;ptag&lt;/b&gt;" style="text;html=1;align=center;verticalAlign=middle;resizable=0;points=[];autosize=1;strokeColor=none;fillColor=none;fontFamily=Courier New;" parent="1" vertex="1">
          <mxGeometry x="530" y="200" width="60" height="30" as="geometry" />
        </mxCell>
        <mxCell id="Zh-JILyBSgv-LCjlcfyP-31" value="&lt;font&gt;&lt;b&gt;hit&lt;/b&gt;&lt;/font&gt;" style="text;html=1;align=center;verticalAlign=middle;resizable=0;points=[];autosize=1;strokeColor=none;fillColor=none;fontFamily=Courier New;" parent="1" vertex="1">
          <mxGeometry x="630" y="175" width="50" height="30" as="geometry" />
        </mxCell>
      </root>
    </mxGraphModel>
  </diagram>
</mxfile>
